<svg width="28" height="28" viewBox="0 0 28 28" fill="none" xmlns="http://www.w3.org/2000/svg">
<path d="M5.15667 24.0088C4.99481 24.0085 4.83477 23.9745 4.68674 23.909C4.53872 23.8436 4.40593 23.748 4.29684 23.6284C4.18577 23.5099 4.10102 23.3692 4.04814 23.2156C3.99526 23.062 3.97545 22.8989 3.99 22.7371L4.27584 19.5941L17.4802 6.39443L21.6067 10.5198L8.40584 23.7183L5.26284 24.0041C5.22754 24.0074 5.19211 24.0089 5.15667 24.0088ZM22.4303 9.69493L18.305 5.5696L20.7795 3.0951C20.8879 2.98663 21.0165 2.90057 21.1582 2.84186C21.2998 2.78315 21.4516 2.75293 21.6049 2.75293C21.7582 2.75293 21.9101 2.78315 22.0517 2.84186C22.1933 2.90057 22.322 2.98663 22.4303 3.0951L24.9048 5.5696C25.0133 5.67795 25.0994 5.80662 25.1581 5.94825C25.2168 6.08988 25.247 6.2417 25.247 6.39501C25.247 6.54833 25.2168 6.70015 25.1581 6.84178C25.0994 6.98341 25.0133 7.11208 24.9048 7.22043L22.4315 9.69376L22.4303 9.69493Z" fill="#184CB2"/>
</svg>
